<?xml version="1.0" encoding="iso-8859-1"?>
<!-- Uploaded to: SVG Repo, www.svgrepo.com, Generator: SVG Repo Mixer Tools -->
<svg height="800px" width="800px" version="1.1" id="Layer_1" xmlns="http://www.w3.org/2000/svg" xmlns:xlink="http://www.w3.org/1999/xlink" 
	 viewBox="0 0 512 512" xml:space="preserve">
<circle style="fill:#83CF8F;" cx="255.969" cy="256" r="255.969"/>
<path style="fill:#FFFFFF;" d="M225.123,59.209h194.583C476.064,106.184,512,176.891,512,256
	c0,141.353-114.616,255.969-255.969,255.969c-32.195,0-62.98-5.948-91.313-16.803V135.068V70.125c0-6.01,4.906-10.916,10.916-10.916
	h49.55H225.123z"/>
<path style="fill:#E4E7ED;" d="M213.287,431.082h122.711v6.807H213.287V431.082z M213.287,464.381h86.897v6.868h-86.897V464.381z
	 M213.287,447.701h122.711v6.807H213.287V447.701z"/>
<path style="fill:#6C7678;" d="M175.573,59.209h244.134c11.897,9.935,22.874,20.85,32.809,32.747H164.657V70.125
	C164.657,64.115,169.563,59.209,175.573,59.209z"/>
<path style="fill:#E4E7ED;" d="M366.66,70.554h65.74c3.863,3.679,7.543,7.42,11.161,11.284H366.66c-1.594,0-2.944-1.288-2.944-2.944
	v-5.458c0-1.594,1.349-2.944,2.944-2.944V70.554z"/>
<path style="fill:#83CF8F;" d="M186.427,68.592c3.496,0,6.316,2.821,6.316,6.255c0,3.496-2.821,6.316-6.316,6.316
	c-3.495,0-6.255-2.821-6.255-6.316C180.172,71.351,182.993,68.592,186.427,68.592z"/>
<path style="fill:#FFE356;" d="M211.264,68.592c3.495,0,6.255,2.821,6.255,6.255c0,3.496-2.821,6.316-6.255,6.316
	c-3.496,0-6.316-2.821-6.316-6.316C204.947,71.351,207.768,68.592,211.264,68.592z"/>
<path style="fill:#FF7069;" d="M236.039,68.592c3.496,0,6.316,2.821,6.316,6.255c0,3.496-2.821,6.316-6.316,6.316
	s-6.255-2.821-6.255-6.316C229.784,71.351,232.605,68.592,236.039,68.592z"/>
<path style="fill:#FFE356;" d="M129.15,462.542c17.171-31.153,24.223-104.375,5.397-137.122
	c-18.827-32.809-12.51-36.12-54.027-35.875c-41.026,0-35.262,3.005-54.088,35.814c-18.827,32.747-10.67,108.115,5.213,137.183
	c18.275,33.361,80.397,31.214,97.506,0.061V462.542z"/>
<path style="fill:#5D718F;" d="M145.34,368.96c-1.104-17.048-4.477-32.625-10.793-43.602c-18.827-32.809-12.51-36.12-54.027-35.875
	c-41.026,0-35.262,3.005-54.088,35.814c-6.255,10.916-9.567,26.554-10.548,43.602L145.34,368.96z"/>
<g>
	<polygon style="fill:#384A66;" points="78.005,289.483 77.944,368.96 83.279,368.96 83.34,289.483 80.519,289.483 	"/>
	<path style="fill:#384A66;" d="M80.642,304.937L80.642,304.937c-4.17,0-7.604,3.434-7.604,7.604v39.125
		c0,4.17,3.434,7.604,7.604,7.604l0,0c4.17,0,7.604-3.434,7.604-7.604v-39.125C88.246,308.371,84.812,304.937,80.642,304.937z"/>
</g>
<path style="fill:#FAD24D;" d="M80.642,312.848L80.642,312.848c-3.618,0-6.562,2.944-6.562,6.562v25.45
	c0,3.618,2.944,6.562,6.562,6.562l0,0c3.618,0,6.562-2.944,6.562-6.562v-25.45C87.204,315.792,84.26,312.848,80.642,312.848z"/>
<g>
	<path style="fill:#ECF0F1;" d="M133.994,283.657c-0.613,1.165-2.024,1.656-3.25,1.043c-1.165-0.613-1.656-2.024-1.043-3.25
		l2.882-5.703c0.613-1.165,2.024-1.656,3.25-1.043c1.165,0.613,1.656,2.024,1.043,3.25L133.994,283.657z M125.225,281.327
		c0,1.349-1.043,2.392-2.392,2.453c-1.349,0-2.392-1.043-2.453-2.392l-0.184-14.841c0-1.349,1.043-2.392,2.392-2.453
		c1.349,0,2.392,1.043,2.453,2.392l0.123,14.841H125.225z M115.781,283.106c0.736,1.104,0.429,2.576-0.736,3.312
		c-1.104,0.736-2.576,0.429-3.312-0.675l-2.576-3.986c-0.736-1.104-0.429-2.576,0.736-3.312c1.104-0.736,2.576-0.429,3.312,0.736
		l2.576,3.986V283.106z M136.018,310.15c-1.227-0.429-1.901-1.778-1.472-3.066c0.429-1.226,1.778-1.901,3.066-1.472l13.062,4.538
		c1.227,0.429,1.901,1.778,1.472,3.066c-0.429,1.227-1.778,1.901-3.066,1.472L136.018,310.15z M140.495,300.276
		c-1.288,0.307-2.576-0.491-2.882-1.778s0.491-2.576,1.778-2.882l5.151-1.165c1.288-0.307,2.576,0.491,2.882,1.778
		c0.307,1.288-0.491,2.576-1.778,2.882L140.495,300.276z M139.698,290.526c-1.043,0.859-2.576,0.675-3.373-0.368
		c-0.859-1.043-0.675-2.576,0.368-3.373l8.892-7.298c1.043-0.859,2.576-0.675,3.373,0.368c0.859,1.043,0.675,2.576-0.368,3.373
		L139.698,290.526z"/>
	<polygon style="fill:#828282;" points="78.802,289.483 78.802,162.173 78.802,160.456 80.581,160.456 164.657,160.456 
		164.657,163.952 82.298,163.952 82.298,289.483 	"/>
</g>
<path style="fill:#E4E7ED;" d="M257.748,357.431h165.945c0,0-7.666-56.664-25.082-87.204c-6.684-11.713-10.119-27.167-11.897-41.885
	c-0.307-2.392-0.552-4.845-0.736-7.175c-1.778-20.666-0.429-38.083-0.429-38.083s18.52-6.562,18.52-28.332
	c0-21.709-24.837-33.667-25.02-33.729v-6.378h-11.284v9.015l-26.86,36.55h-0.245l-26.922-36.55v-9.015h-11.284v6.378
	c-0.245,0.123-25.082,12.081-25.082,33.729c0,21.77,18.52,28.332,18.52,28.332s1.349,17.416-0.429,38.083
	c-0.184,2.33-0.429,4.783-0.736,7.175c-1.778,14.718-5.213,30.233-11.897,41.885C265.413,300.767,257.748,357.431,257.748,357.431z"
	/>
<path style="fill:#FFFFFF;" d="M385.978,221.168h-90.515c-0.184,2.33-0.429,4.722-0.736,7.175h91.987
	C386.407,225.951,386.162,223.559,385.978,221.168z"/>
<path style="fill:#F5EDEE;" d="M348.202,269.553c-0.736,0-1.41-0.429-1.656-1.165c-6.071-16.006-6.255-29.068-5.519-36.795
	c-4.538,6.623-10.854,18.213-10.119,30.049c0.061,0.981-0.675,1.84-1.656,1.901c-0.981,0.061-1.84-0.675-1.901-1.656
	c-1.227-19.685,14.718-37.592,15.393-38.389c0.552-0.613,1.472-0.797,2.208-0.368c0.736,0.429,1.104,1.288,0.859,2.085
	c-0.061,0.184-5.09,17.723,4.17,41.885c0.368,0.92-0.123,1.962-1.043,2.33c-0.184,0.061-0.429,0.123-0.613,0.123H348.202z"/>
<path style="fill:#FEFEFE;" d="M296.137,188.481c-0.307-0.123-0.613-0.307-0.92-0.429l1.594-3.005
	c0.245,0.123,0.429,0.245,0.675,0.307c2.637,1.104,4.722,0.675,6.991-1.043c2.269-1.717,4.415-4.845,6.071-8.647
	c3.863-8.585,5.213-20.728,2.944-27.596l3.25-1.104c2.637,8.279,1.043,20.666-3.066,30.049c-1.84,4.17-4.17,7.727-7.114,9.996
	c-2.882,2.269-6.684,3.128-10.364,1.472l-0.123-0.061L296.137,188.481z"/>
<path style="fill:#FFE356;" d="M397.875,279.181c2.146,3.68,0.859,8.401-2.882,10.548l-53.414,30.785
	c-3.679,2.146-8.401,0.859-10.548-2.821l-53.291-92.539c-2.146-3.679,9.505-57.891,9.505-57.891s55.192,15.699,57.277,19.379
	l53.291,92.539H397.875z M307.973,183.698c2.514,4.354,1.043,9.935-3.373,12.449c-4.354,2.514-9.935,1.043-12.449-3.373
	c-2.514-4.354-1.043-9.935,3.373-12.449c4.354-2.514,9.935-1.043,12.51,3.373H307.973z"/>
<path style="fill:#FF7069;" d="M262.838,314.749c-1.962,3.802-6.623,5.213-10.425,3.25l-54.579-28.639
	c-3.802-1.962-5.213-6.623-3.25-10.425l49.612-94.501c1.962-3.741,53.966-22.935,53.966-22.935s16.251,55.008,14.289,58.749
	l-49.673,94.501H262.838z M295.401,187.684c-2.33,4.477-7.85,6.194-12.326,3.863c-4.477-2.33-6.194-7.85-3.863-12.326
	c2.33-4.477,7.85-6.194,12.326-3.863C296.014,177.688,297.731,183.208,295.401,187.684z"/>
<path style="fill:#FEFEFE;" d="M284.669,181.245c0.123-2.637,1.104-5.519,2.698-8.524c4.783-9.076,14.718-19.501,22.322-24.162
	c2.576-1.533,4.845-1.717,7.114-1.533l0.061,0.123l-0.368,2.514c-0.797-0.123-2.76,0.491-4.967,1.84
	c-2.269,1.41-4.906,3.434-7.543,5.887c-5.274,4.906-10.609,11.406-13.553,16.926c-1.41,2.698-2.269,5.213-2.269,7.052
	c0,1.84,0.429,2.698,1.778,3.434l5.887,2.33c-0.552,1.165-1.226,2.146-2.024,2.821c-0.123-0.061-5.397-2.085-5.458-2.146
	l-0.123-0.061c-2.514-1.288-3.618-3.925-3.496-6.5H284.669z"/>
<g>
	<path style="fill:#FFFFFF;" d="M227.453,270.35c1.043-0.859,2.269-1.533,3.679-2.024l1.472,4.293
		c-1.656,0.368-2.882,1.41-3.741,3.189c-0.859,1.717-1.043,3.005-0.429,3.925c0.552,0.92,1.288,1.226,2.085,1.043
		s1.778-1.104,2.944-2.637c1.104-1.717,2.514-3.066,4.293-4.109c1.778-0.981,3.741-0.92,5.949,0.184
		c1.717,0.859,2.821,2.392,3.25,4.599c0.429,2.208,0.123,4.415-0.92,6.5c-0.981,2.024-2.146,3.557-3.373,4.599
		c-1.226,1.043-2.576,1.84-4.047,2.269l-1.41-4.293c1.656-0.368,3.128-1.656,4.477-3.863c0.981-1.901,1.165-3.312,0.552-4.231
		c-0.552-0.92-1.41-1.288-2.453-1.227c-1.043,0.061-2.146,0.981-3.312,2.821c-1.043,1.656-2.392,2.944-3.986,3.986
		c-1.594,0.981-3.434,0.981-5.519-0.123c-1.901-0.92-3.066-2.514-3.373-4.783c-0.307-2.208-0.061-4.17,0.797-5.887
		c0.981-2.024,2.024-3.434,3.066-4.293V270.35z M273.57,230.55l-21.586-10.854l7.911-15.883l4.047,2.024l-5.826,11.529l4.599,2.33
		l4.354-8.647l3.986,2.024l-4.354,8.647l4.906,2.453l5.764-11.529l4.047,2.024l-7.972,15.822L273.57,230.55z M244.44,234.72
		l17.539,8.831l5.765-11.529l4.047,2.024l-7.972,15.822l-21.586-10.854l2.146-4.354L244.44,234.72z M241.006,255.877l6.562,7.42
		l3.25-6.439l-9.812-0.92V255.877z M251.37,274.765l-17.232-19.501l2.146-4.293l25.879,2.208l-2.269,4.599l-3.986-0.368
		l-4.906,9.751l2.698,2.944l-2.33,4.599V274.765z"/>
	<path style="fill:#FFFFFF;" d="M360.528,263.298c1.349-0.797,2.208-1.962,2.453-3.373c0.307-1.41,0.061-2.821-0.797-4.17
		c-0.797-1.349-1.901-2.208-3.373-2.637c-1.41-0.368-2.821-0.184-4.17,0.675c-1.349,0.797-2.146,1.901-2.453,3.373
		c-0.307,1.41-0.061,2.821,0.797,4.17c0.797,1.349,1.962,2.269,3.373,2.637c1.41,0.429,2.821,0.184,4.17-0.613V263.298z
		 M355.193,269.001c-2.821-0.675-5.029-2.33-6.623-4.967s-2.024-5.335-1.349-8.156c0.675-2.821,2.33-5.029,4.967-6.623
		c2.637-1.594,5.335-2.024,8.156-1.349c2.821,0.675,5.029,2.33,6.623,4.967c1.594,2.637,2.024,5.335,1.349,8.156
		c-0.675,2.821-2.33,5.029-4.967,6.623C360.712,269.246,358.014,269.675,355.193,269.001z M338.267,282.554l-1.41-49.734l6.01-3.618
		l1.472,49.734l-6.071,3.68V282.554z M326.247,258.208c1.349-0.859,2.208-1.962,2.514-3.434c0.307-1.472,0.061-2.882-0.797-4.293
		c-0.859-1.41-1.962-2.269-3.434-2.698c-1.41-0.429-2.882-0.184-4.231,0.675c-1.349,0.859-2.208,1.962-2.514,3.434
		c-0.307,1.472-0.061,2.882,0.797,4.293c0.859,1.41,2.024,2.33,3.434,2.698c1.472,0.429,2.882,0.184,4.231-0.613V258.208z
		 M320.728,263.911c-2.882-0.736-5.09-2.392-6.684-5.029c-1.594-2.637-2.024-5.397-1.349-8.218c0.736-2.882,2.392-5.09,5.029-6.684
		c2.637-1.594,5.397-2.024,8.217-1.349c2.882,0.736,5.09,2.392,6.684,5.029s2.024,5.397,1.349,8.218
		c-0.675,2.882-2.392,5.09-5.029,6.684S323.549,264.585,320.728,263.911z"/>
</g>
<path style="fill:#FFE356;" d="M225.736,393.674h37.592c6.868,0,12.449,5.581,12.449,12.449l0,0c0,6.868-5.581,12.449-12.449,12.449
	h-37.592c-6.868,0-12.449-5.581-12.449-12.449l0,0C213.287,399.255,218.868,393.674,225.736,393.674z"/>
</svg>